<mxfile host="app.diagrams.net" modified="2022-09-23T03:18:15.256Z" agent="5.0 (X11; Linux x86_64) AppleWebKit/537.36 (KHTML, like Gecko) Chrome/105.0.0.0 Safari/537.36" etag="cxVWmp66R7h8EpzPEHNm" version="20.2.7" type="github">
  <diagram id="EAYxhkrQJFX91t_uuog1" name="Página-1">
    <mxGraphModel dx="972" dy="528" grid="1" gridSize="10" guides="1" tooltips="1" connect="1" arrows="1" fold="1" page="1" pageScale="1" pageWidth="827" pageHeight="1169" math="0" shadow="0">
      <root>
        <mxCell id="0" />
        <mxCell id="1" parent="0" />
        <mxCell id="d8i9DRvW9apqNc8FjlM4-7" value="Sistema PNP" style="shape=umlFrame;whiteSpace=wrap;html=1;swimlaneFillColor=default;" vertex="1" parent="1">
          <mxGeometry x="200" y="360" width="300" height="200" as="geometry" />
        </mxCell>
        <mxCell id="d8i9DRvW9apqNc8FjlM4-22" style="edgeStyle=orthogonalEdgeStyle;rounded=0;orthogonalLoop=1;jettySize=auto;html=1;strokeColor=#FF0000;dashed=1;" edge="1" parent="1" source="d8i9DRvW9apqNc8FjlM4-1" target="d8i9DRvW9apqNc8FjlM4-19">
          <mxGeometry relative="1" as="geometry">
            <Array as="points">
              <mxPoint x="85" y="620" />
              <mxPoint x="710" y="620" />
            </Array>
          </mxGeometry>
        </mxCell>
        <mxCell id="d8i9DRvW9apqNc8FjlM4-1" value="usuario 1" style="shape=umlActor;verticalLabelPosition=bottom;verticalAlign=top;html=1;outlineConnect=0;" vertex="1" parent="1">
          <mxGeometry x="70" y="432.5" width="30" height="60" as="geometry" />
        </mxCell>
        <mxCell id="d8i9DRvW9apqNc8FjlM4-4" value="usuario administrador" style="shape=umlActor;verticalLabelPosition=bottom;verticalAlign=top;html=1;outlineConnect=0;" vertex="1" parent="1">
          <mxGeometry x="340" y="10" width="30" height="60" as="geometry" />
        </mxCell>
        <mxCell id="d8i9DRvW9apqNc8FjlM4-8" value="Modulo Persona" style="shape=module;align=left;spacingLeft=20;align=center;verticalAlign=top;" vertex="1" parent="1">
          <mxGeometry x="260" y="390" width="190" height="120" as="geometry" />
        </mxCell>
        <mxCell id="d8i9DRvW9apqNc8FjlM4-13" value="Eliminar persona" style="html=1;" vertex="1" parent="1">
          <mxGeometry x="310" y="425" width="110" height="25" as="geometry" />
        </mxCell>
        <mxCell id="d8i9DRvW9apqNc8FjlM4-20" style="edgeStyle=orthogonalEdgeStyle;rounded=0;orthogonalLoop=1;jettySize=auto;html=1;entryX=-0.051;entryY=0.594;entryDx=0;entryDy=0;entryPerimeter=0;strokeColor=#FF0000;" edge="1" parent="1" source="d8i9DRvW9apqNc8FjlM4-14" target="d8i9DRvW9apqNc8FjlM4-19">
          <mxGeometry relative="1" as="geometry" />
        </mxCell>
        <mxCell id="d8i9DRvW9apqNc8FjlM4-14" value="Agregar persona" style="html=1;" vertex="1" parent="1">
          <mxGeometry x="310" y="450" width="110" height="25" as="geometry" />
        </mxCell>
        <mxCell id="d8i9DRvW9apqNc8FjlM4-15" value="Editar persona" style="html=1;" vertex="1" parent="1">
          <mxGeometry x="310" y="475" width="110" height="25" as="geometry" />
        </mxCell>
        <mxCell id="d8i9DRvW9apqNc8FjlM4-18" value="" style="edgeStyle=orthogonalEdgeStyle;rounded=0;orthogonalLoop=1;jettySize=auto;html=1;entryX=0;entryY=0.5;entryDx=0;entryDy=0;" edge="1" parent="1" source="d8i9DRvW9apqNc8FjlM4-1" target="d8i9DRvW9apqNc8FjlM4-14">
          <mxGeometry relative="1" as="geometry" />
        </mxCell>
        <mxCell id="d8i9DRvW9apqNc8FjlM4-19" value="" style="shape=datastore;whiteSpace=wrap;html=1;" vertex="1" parent="1">
          <mxGeometry x="660" y="395" width="100" height="115" as="geometry" />
        </mxCell>
        <mxCell id="d8i9DRvW9apqNc8FjlM4-21" value="Información guardada" style="text;html=1;resizable=0;autosize=1;align=center;verticalAlign=middle;points=[];fillColor=none;strokeColor=none;rounded=0;" vertex="1" parent="1">
          <mxGeometry x="510" y="463.5" width="140" height="30" as="geometry" />
        </mxCell>
        <mxCell id="d8i9DRvW9apqNc8FjlM4-23" value="Información de auditoria obtenida&lt;br&gt;-IP de la maquina que realiza la operación&lt;br&gt;-Hora en la que se realiza la acción&lt;br&gt;-Usuario que realiza la acción" style="text;html=1;resizable=0;autosize=1;align=center;verticalAlign=middle;points=[];fillColor=none;strokeColor=none;rounded=0;" vertex="1" parent="1">
          <mxGeometry x="220" y="620" width="250" height="70" as="geometry" />
        </mxCell>
        <mxCell id="d8i9DRvW9apqNc8FjlM4-25" style="edgeStyle=orthogonalEdgeStyle;rounded=0;orthogonalLoop=1;jettySize=auto;html=1;entryX=0.5;entryY=0;entryDx=0;entryDy=0;strokeColor=#FF0000;" edge="1" parent="1" source="d8i9DRvW9apqNc8FjlM4-24" target="d8i9DRvW9apqNc8FjlM4-19">
          <mxGeometry relative="1" as="geometry" />
        </mxCell>
        <mxCell id="d8i9DRvW9apqNc8FjlM4-24" value="Sistema PNP - Modo administrador" style="shape=umlFrame;whiteSpace=wrap;html=1;swimlaneFillColor=default;width=100;height=50;" vertex="1" parent="1">
          <mxGeometry x="200" y="110" width="300" height="210" as="geometry" />
        </mxCell>
        <mxCell id="d8i9DRvW9apqNc8FjlM4-26" value="Acceso completo a la BD" style="text;html=1;resizable=0;autosize=1;align=center;verticalAlign=middle;points=[];fillColor=none;strokeColor=none;rounded=0;" vertex="1" parent="1">
          <mxGeometry x="540" y="185" width="160" height="30" as="geometry" />
        </mxCell>
      </root>
    </mxGraphModel>
  </diagram>
</mxfile>
